# xmcd CD database file
#
# Track frame offsets:
#	150
#	15842
#	37945
#	60222
#	77555
#	94921
#	109457
#	127474
#	147861
#	163846
#	178683
#	210646
#	225745
#	239251
#
# Disc length: 3422 seconds
#
# Revision: 0
# Processed by: cddbd v1.5.2PL0 Copyright (c) Steve Scherf et al.
# Submitted via: CDex 1.70beta2
#
DISCID=b70d5c0e
DTITLE=Klaus Lessmann - Maurizio Geri - Riccardo Galardini - Paolo Ghetti - Swing Chopin
DYEAR=2008
DGENRE=Jazz
TTITLE0=Mazurka No. 24
TTITLE1=Waltz No. 7
TTITLE2=Mazurka No. 31
TTITLE3=Fleur D'Ennui
TTITLE4=Waltz No. 1
TTITLE5=Nocturne op. 37,1
TTITLE6=Mazurka No. 44
TTITLE7=Waltz No. 9
TTITLE8=Mazurka No. 19
TTITLE9=Swing 42
TTITLE10=Waltz No. 3
TTITLE11=Clouds
TTITLE12=Mazurka No. 1
TTITLE13=Waltz No. 13
EXTD=YEAR: 2008
EXTT0=
EXTT1=
EXTT2=
EXTT3=
EXTT4=
EXTT5=
EXTT6=
EXTT7=
EXTT8=
EXTT9=
EXTT10=
EXTT11=
EXTT12=
EXTT13=
PLAYORDER=
